<svg xmlns="http://www.w3.org/2000/svg" viewBox="0 0 320 320">
  <rect width="320" height="320" rx="36" fill="#07111d" />
  <rect x="32" y="32" width="96" height="96" rx="18" fill="#e6fffb" />
  <rect x="50" y="50" width="60" height="60" rx="12" fill="#07111d" />
  <rect x="192" y="32" width="96" height="96" rx="18" fill="#e6fffb" />
  <rect x="210" y="50" width="60" height="60" rx="12" fill="#07111d" />
  <rect x="32" y="192" width="96" height="96" rx="18" fill="#e6fffb" />
  <rect x="50" y="210" width="60" height="60" rx="12" fill="#07111d" />
  <g fill="#67e8f9">
    <rect x="168" y="164" width="24" height="24" rx="6" />
    <rect x="204" y="164" width="24" height="60" rx="6" />
    <rect x="240" y="164" width="24" height="24" rx="6" />
    <rect x="168" y="204" width="24" height="24" rx="6" />
    <rect x="240" y="204" width="24" height="60" rx="6" />
    <rect x="168" y="244" width="60" height="24" rx="6" />
  </g>
  <text x="160" y="306" text-anchor="middle" fill="#d5f9ff" font-family="Manrope, sans-serif" font-size="18" letter-spacing="2">QR READY</text>
</svg>
