<svg xmlns="http://www.w3.org/2000/svg" viewBox="0 0 1200 900">
  <defs>
    <linearGradient id="bg" x1="0%" x2="100%" y1="0%" y2="100%">
      <stop offset="0%" stop-color="#07131f" />
      <stop offset="100%" stop-color="#11364a" />
    </linearGradient>
  </defs>
  <rect width="1200" height="900" fill="url(#bg)" />
  <g opacity="0.35" fill="none" stroke="#67e8f9" stroke-width="3">
    <path d="M300 190c90-48 199-73 312-73 112 0 220 26 308 72" />
    <path d="M350 290c74-38 164-58 258-58 96 0 187 20 261 58" />
    <path d="M388 392c62-27 136-42 212-42 79 0 155 15 218 43" />
    <path d="M420 504c54-20 117-31 182-31 67 0 131 12 186 32" />
    <path d="M468 622c40-11 84-17 130-17 48 0 94 6 135 18" />
  </g>
  <g fill="none" stroke="#2dd4bf" stroke-width="10" stroke-linecap="round">
    <path d="M512 195c-58 55-91 127-91 205 0 167 141 303 315 303" opacity="0.85" />
    <path d="M688 195c58 55 91 127 91 205 0 167-141 303-315 303" opacity="0.85" />
  </g>
  <g fill="#e6fffb">
    <circle cx="522" cy="258" r="10" />
    <circle cx="685" cy="258" r="10" />
    <circle cx="457" cy="402" r="10" />
    <circle cx="748" cy="402" r="10" />
    <circle cx="525" cy="598" r="10" />
    <circle cx="680" cy="598" r="10" />
  </g>
  <text x="90" y="122" fill="#f8fafc" font-family="Manrope, sans-serif" font-size="25" letter-spacing="5">BIOBODY INSIGHTS</text>
</svg>
