<svg width="1200" height="800" viewBox="0 0 1200 800" fill="none" xmlns="http://www.w3.org/2000/svg">
  <rect width="1200" height="800" rx="36" fill="#04070B"/>
  <rect x="52" y="56" width="1096" height="688" rx="28" fill="url(#paint0_linear)" stroke="white" stroke-opacity="0.08"/>
  <rect x="92" y="108" width="394" height="540" rx="28" fill="#081018" stroke="#1F3544"/>
  <rect x="124" y="144" width="330" height="184" rx="20" fill="url(#paint1_linear)"/>
  <rect x="124" y="354" width="330" height="58" rx="14" fill="#0F1A24"/>
  <rect x="124" y="430" width="158" height="42" rx="12" fill="#101E29"/>
  <rect x="296" y="430" width="158" height="42" rx="12" fill="#101E29"/>
  <rect x="124" y="492" width="330" height="120" rx="18" fill="#0C151D"/>
  <circle cx="196" cy="206" r="42" fill="#AAFF72"/>
  <circle cx="196" cy="206" r="24" fill="#111A13"/>
  <path d="M160 206H232" stroke="#FF4FBE" stroke-width="10" stroke-linecap="round"/>
  <path d="M196 170V242" stroke="#66FFF0" stroke-width="10" stroke-linecap="round"/>
  <rect x="544" y="108" width="564" height="126" rx="28" fill="#09131B" stroke="#1B3242"/>
  <path d="M584 186C626 186 626 142 668 142C710 142 710 214 752 214C794 214 794 160 836 160C878 160 878 196 920 196C962 196 962 132 1004 132C1046 132 1046 186 1088 186" stroke="url(#paint2_linear)" stroke-width="8" stroke-linecap="round"/>
  <rect x="544" y="258" width="274" height="196" rx="28" fill="#09131B" stroke="#1B3242"/>
  <rect x="834" y="258" width="274" height="196" rx="28" fill="#09131B" stroke="#1B3242"/>
  <rect x="544" y="480" width="564" height="168" rx="28" fill="#09131B" stroke="#1B3242"/>
  <path d="M590 586H1062" stroke="#203746" stroke-width="2"/>
  <path d="M590 554H1062" stroke="#203746" stroke-width="2"/>
  <path d="M590 522H1062" stroke="#203746" stroke-width="2"/>
  <rect x="588" y="520" width="72" height="68" rx="14" fill="#122230"/>
  <rect x="678" y="496" width="72" height="92" rx="14" fill="#173040"/>
  <rect x="768" y="536" width="72" height="52" rx="14" fill="#263B4C"/>
  <rect x="858" y="470" width="72" height="118" rx="14" fill="#FF4FBE"/>
  <rect x="948" y="446" width="72" height="142" rx="14" fill="#66FFF0"/>
  <rect x="1038" y="510" width="72" height="78" rx="14" fill="#AAFF72"/>
  <text x="124" y="94" fill="#C8F6FF" font-family="Arial, sans-serif" font-size="26" font-weight="700">RareSignal</text>
  <text x="544" y="94" fill="#C8F6FF" font-family="Arial, sans-serif" font-size="26" font-weight="700">Collection intelligence surface</text>
  <defs>
    <linearGradient id="paint0_linear" x1="52" y1="56" x2="1148" y2="744" gradientUnits="userSpaceOnUse">
      <stop stop-color="#091018"/>
      <stop offset="1" stop-color="#05080D"/>
    </linearGradient>
    <linearGradient id="paint1_linear" x1="124" y1="144" x2="454" y2="328" gradientUnits="userSpaceOnUse">
      <stop stop-color="#102330"/>
      <stop offset="1" stop-color="#0A1016"/>
    </linearGradient>
    <linearGradient id="paint2_linear" x1="584" y1="173" x2="1088" y2="173" gradientUnits="userSpaceOnUse">
      <stop stop-color="#66FFF0"/>
      <stop offset="0.5" stop-color="#FF4FBE"/>
      <stop offset="1" stop-color="#AAFF72"/>
    </linearGradient>
  </defs>
</svg>
